<?xml version="1.0" standalone="no"?>
<!DOCTYPE svg PUBLIC "-//W3C//DTD SVG 20010904//EN"
 "http://www.w3.org/TR/2001/REC-SVG-20010904/DTD/svg10.dtd">
<svg version="1.0" xmlns="http://www.w3.org/2000/svg"
 width="32px" height="32px" viewBox="0 0 512.000000 512.000000"
 preserveAspectRatio="xMidYMid meet">

<g transform="translate(0.000000,512.000000) scale(0.100000,-0.100000)"
fill="#000000" stroke="none">
<path d="M1075 4516 c-40 -17 -84 -63 -101 -103 -11 -25 -14 -94 -14 -285 0
-294 5 -314 84 -370 l46 -32 0 -457 c0 -298 4 -467 11 -486 14 -38 67 -92 106
-109 25 -11 93 -14 288 -14 232 0 259 2 293 19 47 24 77 56 97 103 13 33 15
136 15 813 0 677 -2 780 -15 813 -20 47 -50 79 -97 103 -34 18 -62 19 -360 19
-245 -1 -330 -4 -353 -14z m625 -921 l0 -735 -205 0 -205 0 0 530 0 530 -65 0
-65 0 0 205 0 205 270 0 270 0 0 -735z"/>
<path d="M2840 4238 c-24 -13 -56 -39 -71 -58 -22 -29 -1601 -2895 -1666
-3025 -30 -58 -36 -98 -23 -147 16 -57 52 -103 103 -131 41 -21 51 -22 317
-22 266 0 276 1 317 22 23 13 53 37 66 55 28 38 1638 2966 1675 3047 20 43 23
63 18 105 -7 65 -47 122 -105 153 -43 22 -51 23 -315 23 -262 0 -273 -1 -316
-22z m516 -220 c-13 -24 -376 -684 -806 -1468 -430 -784 -793 -1442 -806
-1462 l-24 -38 -221 0 c-183 0 -220 2 -217 14 2 7 372 685 823 1505 l819 1491
229 0 228 0 -25 -42z"/>
<path d="M2855 2444 c-47 -25 -76 -55 -96 -99 -16 -35 -19 -68 -19 -279 0
-264 6 -301 55 -350 l31 -31 -38 -59 c-44 -68 -74 -145 -94 -236 -17 -79 -20
-604 -4 -662 14 -48 53 -94 101 -118 37 -19 62 -20 616 -20 l578 0 40 23 c44
25 80 72 95 126 14 50 13 466 -1 516 -7 24 -29 57 -54 83 -41 41 -42 43 -26
65 32 42 60 96 86 169 36 97 45 268 21 373 -28 119 -90 229 -176 315 -84 84
-154 129 -262 168 l-73 27 -375 2 c-329 3 -379 1 -405 -13z m778 -204 c79 -24
175 -87 222 -144 19 -23 49 -73 67 -112 61 -131 49 -321 -30 -445 -44 -69
-109 -126 -187 -165 -85 -41 -148 -54 -273 -54 -84 0 -98 -3 -119 -22 -16 -15
-23 -33 -23 -60 l0 -38 318 -2 317 -3 0 -205 0 -205 -523 -3 -523 -2 3 287 c3
238 7 297 21 340 40 120 161 250 277 295 43 17 82 22 175 25 66 2 130 6 142 8
52 12 71 71 31 99 -19 14 -65 16 -305 16 l-283 0 0 205 0 205 314 0 c286 0
320 -2 379 -20z"/>
</g>
</svg>
