<?xml version="1.0" encoding="UTF-8"?>
<svg xmlns="http://www.w3.org/2000/svg" xmlns:xlink="http://www.w3.org/1999/xlink" width="70px" height="70px" viewBox="0 0 70 70" version="1.1">
<g id="surface1">
<path style="fill-rule:nonzero;fill:rgb(0%,0%,0%);fill-opacity:1;stroke-width:14;stroke-linecap:round;stroke-linejoin:round;stroke:rgb(90.196078%,90.196078%,90.196078%);stroke-opacity:1;stroke-miterlimit:4;" d="M 148.851016 40.057972 C 164.141206 41.52941 164.487138 40.193499 177.857405 44.278676 C 261.002137 69.738431 307.011079 150.435205 302.513964 339.96033 L 61.503212 339.96033 C 61.503212 245.652752 186.31544 271.828865 165.351967 119.883499 " transform="matrix(0.225839,0,0,0.201758,0.0164107,0)"/>
<path style="fill-rule:nonzero;fill:rgb(0%,0%,0%);fill-opacity:1;stroke-width:13.25;stroke-linecap:round;stroke-linejoin:round;stroke:rgb(90.196078%,90.196078%,90.196078%);stroke-opacity:1;stroke-miterlimit:4;" d="M 102.686404 51.384174 C 105.332783 38.702699 110.487169 23.446208 117.682552 12.739558 C 119.187356 10.493678 121.038091 8.131633 123.494208 7.628246 C 125.950324 7.124859 127.991323 8.499492 129.876651 9.990292 C 139.113033 17.308761 145.53007 28.615603 147.553771 41.142189 " transform="matrix(0.225839,0,0,0.201758,0.0164107,0)"/>
<path style="fill-rule:nonzero;fill:rgb(0%,0%,0%);fill-opacity:1;stroke-width:14;stroke-linecap:round;stroke-linejoin:round;stroke:rgb(90.196078%,90.196078%,90.196078%);stroke-opacity:1;stroke-miterlimit:4;" d="M 174.865094 157.327732 C 163.10341 170.435149 149.525583 181.877518 135.255892 192.158225 C 117.872815 204.704173 100.62811 215.623794 86.375715 232.235558 C 81.947787 237.288787 77.000961 241.877351 71.639017 245.923806 C 67.902952 248.692433 59.393028 250.531731 54.80943 248.092242 C 51.177145 246.1755 45.797904 241.548213 42.736407 239.108723 C 39.657613 236.669234 36.630709 238.005145 32.946534 238.10195 C 25.19766 238.276199 25.111177 237.366231 19.057368 232.022586 C 0.0484107 215.294656 6.050329 183.871704 19.541673 167.221218 C 27.895928 156.901789 41.888874 133.842802 56.27964 111.732506 C 59.565993 106.640555 60.655679 100.580552 61.866441 94.71416 C 63.180982 88.576713 66.069513 84.433453 70.289882 79.767445 C 83.798523 64.917534 127.282162 41.839186 136.345578 38.296118 C 138.92277 37.308705 140.514057 36.960207 141.759412 34.520717 C 143.229623 31.75209 144.907392 29.080267 146.758128 26.524611 C 152.483301 18.528506 159.765167 11.423008 168.534541 6.911888 C 178.998981 7.531441 178.826015 45.014395 178.826015 45.014395 " transform="matrix(0.225839,0,0,0.201758,0.0164107,0)"/>
<path style="fill-rule:nonzero;fill:rgb(0%,0%,0%);fill-opacity:1;stroke-width:14;stroke-linecap:round;stroke-linejoin:round;stroke:rgb(90.196078%,90.196078%,90.196078%);stroke-opacity:1;stroke-miterlimit:4;" d="M 39.882469 236.649873 C 46.870293 229.040988 52.681949 220.425329 57.075284 211.093313 " transform="matrix(0.225839,0,0,0.201758,0.0164107,0)"/>
<path style="fill-rule:nonzero;fill:rgb(90.196078%,90.196078%,90.196078%);fill-opacity:1;stroke-width:5;stroke-linecap:round;stroke-linejoin:round;stroke:rgb(90.196078%,90.196078%,90.196078%);stroke-opacity:1;stroke-miterlimit:4;" d="M 37.166903 204.316952 C 37.011234 207.182385 34.520524 209.408903 31.631993 209.234654 C 28.743461 209.060405 26.529497 206.601554 26.702463 203.697399 C 26.875429 200.812606 29.348842 198.605448 32.237374 198.760336 C 35.125905 198.934586 37.339869 201.412798 37.166903 204.316952 Z M 37.166903 204.316952 " transform="matrix(0.225839,0,0,0.201758,0.0164107,0)"/>
<path style="fill-rule:nonzero;fill:rgb(90.196078%,90.196078%,90.196078%);fill-opacity:1;stroke-width:8;stroke-linecap:round;stroke-linejoin:round;stroke:rgb(90.196078%,90.196078%,90.196078%);stroke-opacity:1;stroke-miterlimit:4;" d="M 102.85937 99.012309 C 97.462833 105.788669 91.270652 109.854486 88.987501 108.073271 C 86.721647 106.292056 89.24695 99.302724 94.643488 92.507002 C 100.022729 85.711281 106.249503 81.645465 108.49806 83.426679 C 110.781211 85.207894 108.238611 92.177865 102.85937 99.012309 Z M 102.85937 99.012309 " transform="matrix(0.225839,0,0,0.201758,0.0164107,0)"/>
<path style="fill-rule:nonzero;fill:rgb(0%,0%,0%);fill-opacity:1;stroke-width:14;stroke-linecap:round;stroke-linejoin:miter;stroke:rgb(90.196078%,90.196078%,90.196078%);stroke-opacity:1;stroke-miterlimit:4;" d="M 181.368614 82.168212 C 181.368614 82.168212 177.701736 80.174026 184.499298 83.600929 C 210.876605 97.037484 274.389701 139.844721 266.450564 315.817125 " transform="matrix(0.225839,0,0,0.201758,0.0164107,0)"/>
</g>
</svg>
