<?xml version="1.0" encoding="UTF-8"?>
<svg xmlns="http://www.w3.org/2000/svg" xmlns:xlink="http://www.w3.org/1999/xlink" width="70px" height="70px" viewBox="0 0 70 70" version="1.1">
<g id="surface1">
<path style="fill-rule:nonzero;fill:rgb(0%,0%,0%);fill-opacity:1;stroke-width:14;stroke-linecap:round;stroke-linejoin:round;stroke:rgb(90.196078%,90.196078%,90.196078%);stroke-opacity:1;stroke-miterlimit:4;" d="M 38.45365 326.596241 C 73.962159 316.444564 144.396412 331.135114 179.904921 305.603952 C 215.433525 331.074325 285.847683 316.383776 321.376287 326.596241 C 333.333029 331.094588 344.104145 338.287892 352.825533 347.608792 C 345.691679 357.780731 335.543519 357.983359 321.376287 352.836601 C 285.867778 342.684925 215.433525 357.659154 179.904921 342.36072 C 144.396412 357.659154 73.962159 342.684925 38.45365 352.836601 C 24.266322 357.983359 14.098068 357.780731 7.004404 347.608792 C 21.191732 327.244651 38.45365 326.596241 38.45365 326.596241 Z M 38.45365 326.596241 " transform="matrix(0.194386,0,0,0.192779,0.0290695,0)"/>
<path style="fill-rule:nonzero;fill:rgb(0%,0%,0%);fill-opacity:1;stroke-width:14;stroke-linecap:round;stroke-linejoin:round;stroke:rgb(90.196078%,90.196078%,90.196078%);stroke-opacity:1;stroke-miterlimit:4;" d="M 101.31195 284.692715 C 127.516305 310.89255 232.313632 310.89255 258.477796 284.692715 C 259.924663 280.700938 260.728477 276.526796 260.828954 272.271602 C 260.828954 266.050914 258.93999 259.972066 257.231884 254.075584 C 255.885494 249.151717 253.795576 244.450741 251.002321 240.134759 C 246.701913 233.711443 241.29626 228.118903 234.986315 223.620555 C 234.664789 223.377401 232.79592 221.695587 232.313632 221.817164 C 289.967233 206.09321 295.192027 101.314133 179.945112 59.390345 C 64.658005 101.334396 69.943086 206.113473 127.536401 221.817164 C 126.772777 221.614536 123.557519 224.593171 123.014944 225.01869 C 119.297301 227.916275 115.860994 231.198853 112.826594 234.825899 C 101.995192 247.672531 95.906297 268.502717 101.31195 284.692715 Z M 101.31195 284.692715 " transform="matrix(0.194386,0,0,0.192779,0.0290695,0)"/>
<path style="fill-rule:nonzero;fill:rgb(0%,0%,0%);fill-opacity:1;stroke-width:14;stroke-linecap:round;stroke-linejoin:round;stroke:rgb(90.196078%,90.196078%,90.196078%);stroke-opacity:1;stroke-miterlimit:4;" d="M 206.109276 33.210773 C 206.109276 47.678431 194.373583 59.390345 179.904921 59.390345 C 165.436258 59.390345 153.700565 47.678431 153.700565 33.210773 C 153.700565 18.722852 165.436258 7.010938 179.904921 7.010938 C 194.373583 7.010938 206.109276 18.722852 206.109276 33.210773 Z M 206.109276 33.210773 " transform="matrix(0.194386,0,0,0.192779,0.0290695,0)"/>
<path style="fill-rule:nonzero;fill:rgb(0%,0%,0%);fill-opacity:1;stroke-width:14;stroke-linecap:round;stroke-linejoin:miter;stroke:rgb(90.196078%,90.196078%,90.196078%);stroke-opacity:1;stroke-miterlimit:4;" d="M 127.516305 221.817164 L 232.313632 221.817164 M 101.31195 263.740952 L 258.497892 263.740952 M 179.904921 111.790015 L 179.904921 164.189685 M 153.700565 137.98985 L 206.109276 137.98985 " transform="matrix(0.194386,0,0,0.192779,0.0290695,0)"/>
</g>
</svg>
