<?xml version="1.0" encoding="UTF-8"?>
<svg xmlns="http://www.w3.org/2000/svg" xmlns:xlink="http://www.w3.org/1999/xlink" width="70px" height="70px" viewBox="0 0 70 70" version="1.1">
<g id="surface1">
<path style="fill-rule:nonzero;fill:rgb(0%,0%,0%);fill-opacity:1;stroke-width:14;stroke-linecap:round;stroke-linejoin:miter;stroke:rgb(90.196078%,90.196078%,90.196078%);stroke-opacity:1;stroke-miterlimit:4;" d="M 118.864976 7.013163 C 97.369341 7.013163 80.007994 23.339153 80.007994 43.481608 C 80.021287 51.375493 82.693286 59.024733 87.585305 65.206102 C 68.588853 75.415962 55.680838 94.481978 55.680838 116.467428 C 55.680838 134.995225 64.826785 151.468002 79.117327 162.362868 C 49.898153 172.001889 6.999938 212.988116 6.999938 285.25631 L 230.730013 285.25631 C 230.730013 213.004426 187.831798 172.050818 158.652505 162.379178 C 172.956341 151.516931 182.102288 135.011534 182.102288 116.483737 C 182.102288 94.481978 169.154392 75.415962 150.184527 65.206102 C 155.076546 59.024733 157.748545 51.391803 157.775132 43.497918 C 157.775132 23.339153 140.36061 7.013163 118.864976 7.013163 Z M 118.864976 7.013163 " transform="matrix(0.293846,0,0,0.239505,0.0720023,0)"/>
</g>
</svg>
