<?xml version="1.0" encoding="UTF-8"?>
<svg xmlns="http://www.w3.org/2000/svg" xmlns:xlink="http://www.w3.org/1999/xlink" width="70px" height="70px" viewBox="0 0 70 70" version="1.1">
<g id="surface1">
<path style="fill-rule:nonzero;fill:rgb(0%,0%,0%);fill-opacity:1;stroke-width:14;stroke-linecap:round;stroke-linejoin:round;stroke:rgb(90.196078%,90.196078%,90.196078%);stroke-opacity:1;stroke-miterlimit:4;" d="M 49.396557 201.806612 C 138.455205 186.088662 269.455129 186.088662 332.313792 201.806612 L 353.316381 76.063017 L 279.935123 191.327979 L 279.935123 44.607713 L 222.295156 186.088662 L 190.855174 28.909169 L 159.415192 186.088662 L 101.775226 39.387802 L 101.775226 191.327979 L 28.415268 76.063017 Z M 49.396557 201.806612 " transform="matrix(0.183385,0,0,0.201302,0,0.00863703)"/>
<path style="fill-rule:nonzero;fill:rgb(0%,0%,0%);fill-opacity:1;stroke-width:14;stroke-linecap:round;stroke-linejoin:round;stroke:rgb(90.196078%,90.196078%,90.196078%);stroke-opacity:1;stroke-miterlimit:4;" d="M 49.396557 201.806612 C 49.396557 222.802687 65.095247 222.802687 75.596542 243.721143 C 86.076536 259.458498 86.076536 254.199776 80.836539 280.396359 C 65.095247 290.894396 70.356545 332.808928 70.356545 332.808928 C 138.455205 343.287561 243.255144 343.287561 311.353804 332.808928 C 311.353804 332.808928 316.593801 290.874991 300.87381 280.396359 C 295.633813 254.199776 295.633813 259.419688 306.113807 243.721143 C 316.593801 222.725068 332.313792 222.725068 332.313792 201.806612 C 243.255144 186.088662 138.455205 186.088662 49.396557 201.806612 Z M 49.396557 201.806612 " transform="matrix(0.183385,0,0,0.201302,0,0.00863703)"/>
<path style="fill-rule:nonzero;fill:rgb(0%,0%,0%);fill-opacity:1;stroke-width:14;stroke-linecap:round;stroke-linejoin:round;stroke:rgb(90.196078%,90.196078%,90.196078%);stroke-opacity:1;stroke-miterlimit:4;" d="M 75.596542 243.721143 C 112.276521 233.242511 269.455129 233.242511 306.135108 243.721143 " transform="matrix(0.183385,0,0,0.201302,0,0.00863703)"/>
<path style="fill-rule:nonzero;fill:rgb(0%,0%,0%);fill-opacity:1;stroke-width:14;stroke-linecap:round;stroke-linejoin:round;stroke:rgb(90.196078%,90.196078%,90.196078%);stroke-opacity:1;stroke-miterlimit:4;" d="M 80.836539 280.396359 C 143.695202 269.937131 238.015147 269.937131 300.895111 280.396359 " transform="matrix(0.183385,0,0,0.201302,0,0.00863703)"/>
<path style="fill-rule:nonzero;fill:rgb(0%,0%,0%);fill-opacity:1;stroke-width:14;stroke-linecap:round;stroke-linejoin:round;stroke:rgb(90.196078%,90.196078%,90.196078%);stroke-opacity:1;stroke-miterlimit:4;" d="M 48.927939 75.112178 C 48.927939 86.696889 39.512985 96.108254 27.92535 96.108254 C 16.316413 96.108254 6.92276 86.696889 6.92276 75.112178 C 6.92276 63.508062 16.316413 54.096698 27.92535 54.096698 C 39.512985 54.096698 48.927939 63.508062 48.927939 75.112178 Z M 48.927939 75.112178 " transform="matrix(0.183385,0,0,0.201302,0,0.00863703)"/>
<path style="fill-rule:nonzero;fill:rgb(0%,0%,0%);fill-opacity:1;stroke-width:14;stroke-linecap:round;stroke-linejoin:round;stroke:rgb(90.196078%,90.196078%,90.196078%);stroke-opacity:1;stroke-miterlimit:4;" d="M 211.793861 28.016545 C 211.793861 39.601255 202.400208 48.993215 190.812573 48.993215 C 179.203636 48.993215 169.809983 39.601255 169.809983 28.016545 C 169.809983 16.412429 179.203636 7.001064 190.812573 7.001064 C 202.400208 7.001064 211.793861 16.412429 211.793861 28.016545 Z M 211.793861 28.016545 " transform="matrix(0.183385,0,0,0.201302,0,0.00863703)"/>
<path style="fill-rule:nonzero;fill:rgb(0%,0%,0%);fill-opacity:1;stroke-width:14;stroke-linecap:round;stroke-linejoin:round;stroke:rgb(90.196078%,90.196078%,90.196078%);stroke-opacity:1;stroke-miterlimit:4;" d="M 374.702385 75.112178 C 374.702385 86.696889 365.308732 96.108254 353.721097 96.108254 C 342.11216 96.108254 332.718507 86.696889 332.718507 75.112178 C 332.718507 63.508062 342.11216 54.096698 353.721097 54.096698 C 365.308732 54.096698 374.702385 63.508062 374.702385 75.112178 Z M 374.702385 75.112178 " transform="matrix(0.183385,0,0,0.201302,0,0.00863703)"/>
<path style="fill-rule:nonzero;fill:rgb(0%,0%,0%);fill-opacity:1;stroke-width:14;stroke-linecap:round;stroke-linejoin:round;stroke:rgb(90.196078%,90.196078%,90.196078%);stroke-opacity:1;stroke-miterlimit:4;" d="M 122.735214 38.436963 C 122.735214 50.041079 113.341561 59.433038 101.753925 59.433038 C 90.123688 59.433038 80.730035 50.041079 80.730035 38.436963 C 80.730035 26.832847 90.123688 17.440887 101.753925 17.440887 C 113.341561 17.440887 122.735214 26.832847 122.735214 38.436963 Z M 122.735214 38.436963 " transform="matrix(0.183385,0,0,0.201302,0,0.00863703)"/>
<path style="fill-rule:nonzero;fill:rgb(0%,0%,0%);fill-opacity:1;stroke-width:14;stroke-linecap:round;stroke-linejoin:round;stroke:rgb(90.196078%,90.196078%,90.196078%);stroke-opacity:1;stroke-miterlimit:4;" d="M 300.87381 43.676279 C 300.87381 55.280395 291.480157 64.69176 279.87122 64.69176 C 268.283585 64.69176 258.889932 55.280395 258.889932 43.676279 C 258.889932 32.091569 268.283585 22.680204 279.87122 22.680204 C 291.480157 22.680204 300.87381 32.091569 300.87381 43.676279 Z M 300.87381 43.676279 " transform="matrix(0.183385,0,0,0.201302,0,0.00863703)"/>
</g>
</svg>
