<?xml version="1.0" encoding="UTF-8"?>
<svg xmlns="http://www.w3.org/2000/svg" xmlns:xlink="http://www.w3.org/1999/xlink" width="70px" height="70px" viewBox="0 0 70 70" version="1.1">
<g id="surface1">
<path style="fill-rule:nonzero;fill:rgb(90.196078%,90.196078%,90.196078%);fill-opacity:1;stroke-width:14;stroke-linecap:butt;stroke-linejoin:round;stroke:rgb(0%,0%,0%);stroke-opacity:1;stroke-miterlimit:4;" d="M 6.998561 321.369641 L 289.931174 321.369641 L 289.931174 289.943655 L 6.998561 289.943655 Z M 6.998561 321.369641 " transform="matrix(0.235425,0,0,0.213175,0.0476771,0)"/>
<path style="fill-rule:nonzero;fill:rgb(90.196078%,90.196078%,90.196078%);fill-opacity:1;stroke-width:14;stroke-linecap:butt;stroke-linejoin:round;stroke:rgb(0%,0%,0%);stroke-opacity:1;stroke-miterlimit:4;" d="M 38.441049 289.943655 L 38.441049 247.999585 L 258.505279 247.999585 L 258.505279 289.925331 Z M 38.441049 289.943655 " transform="matrix(0.235425,0,0,0.213175,0.0476771,0)"/>
<path style="fill-rule:nonzero;fill:rgb(90.196078%,90.196078%,90.196078%);fill-opacity:1;stroke-width:14;stroke-linecap:butt;stroke-linejoin:round;stroke:rgb(0%,0%,0%);stroke-opacity:1;stroke-miterlimit:4;" d="M 28.004466 59.388699 L 28.004466 6.999841 L 69.866944 6.999841 L 69.866944 27.999362 L 122.26556 27.999362 L 122.26556 6.999841 L 174.664175 6.999841 L 174.664175 27.999362 L 227.046199 27.999362 L 227.046199 6.999841 L 268.991639 6.999841 L 268.991639 59.388699 " transform="matrix(0.235425,0,0,0.213175,0.0476771,0)"/>
<path style="fill-rule:nonzero;fill:rgb(90.196078%,90.196078%,90.196078%);fill-opacity:1;stroke-width:14;stroke-linecap:round;stroke-linejoin:round;stroke:rgb(0%,0%,0%);stroke-opacity:1;stroke-miterlimit:4;" d="M 237.532559 221.832642 L 253.262099 247.999585 L 43.684229 247.999585 L 59.397177 221.795993 " transform="matrix(0.235425,0,0,0.213175,0.0476771,0)"/>
<path style="fill-rule:nonzero;fill:rgb(90.196078%,90.196078%,90.196078%);fill-opacity:1;stroke-width:14;stroke-linecap:butt;stroke-linejoin:miter;stroke:rgb(0%,0%,0%);stroke-opacity:1;stroke-miterlimit:4;" d="M 237.532559 90.833009 L 237.532559 217.508133 L 59.397177 217.508133 L 59.397177 90.833009 " transform="matrix(0.235425,0,0,0.213175,0.0476771,0)"/>
<path style="fill-rule:nonzero;fill:rgb(90.196078%,90.196078%,90.196078%);fill-opacity:1;stroke-width:14;stroke-linecap:round;stroke-linejoin:round;stroke:rgb(0%,0%,0%);stroke-opacity:1;stroke-miterlimit:4;" d="M 268.991639 59.388699 L 237.532559 90.833009 L 59.397177 90.833009 L 28.004466 59.388699 " transform="matrix(0.235425,0,0,0.213175,0.0476771,0)"/>
<path style="fill:none;stroke-width:14;stroke-linecap:round;stroke-linejoin:miter;stroke:rgb(0%,0%,0%);stroke-opacity:1;stroke-miterlimit:4;" d="M 28.004466 59.388699 L 268.991639 59.388699 " transform="matrix(0.235425,0,0,0.213175,0.0476771,0)"/>
</g>
</svg>
