<?xml version="1.0" encoding="UTF-8"?>
<svg xmlns="http://www.w3.org/2000/svg" xmlns:xlink="http://www.w3.org/1999/xlink" width="70px" height="70px" viewBox="0 0 70 70" version="1.1">
<g id="surface1">
<path style="fill:none;stroke-width:14;stroke-linecap:round;stroke-linejoin:miter;stroke:rgb(0%,0%,0%);stroke-opacity:1;stroke-miterlimit:4;" d="M 192.674035 85.170408 L 192.674035 22.489668 " transform="matrix(0.181696,0,0,0.180291,0.0543263,0)"/>
<path style="fill-rule:nonzero;fill:rgb(90.196078%,90.196078%,90.196078%);fill-opacity:1;stroke-width:14;stroke-linecap:round;stroke-linejoin:miter;stroke:rgb(0%,0%,0%);stroke-opacity:1;stroke-miterlimit:4;" d="M 193.361996 132.489709 L 190.373666 132.489709 L 177.194915 127.311453 L 177.194915 70.892286 L 154.578201 70.740622 L 147.182621 63.287398 L 147.182621 48.185955 L 155.696137 39.606082 L 177.194915 39.476083 L 177.194915 21.168021 L 187.363837 6.99823 L 197.360768 6.99823 L 208.540133 21.168021 L 208.540133 39.671081 L 229.952916 40.126074 L 238.573926 47.904292 L 238.573926 64.132386 L 228.018026 70.892286 L 208.540133 71.542276 L 208.540133 127.311453 L 196.371825 132.489709 Z M 193.361996 132.489709 " transform="matrix(0.181696,0,0,0.180291,0.0543263,0)"/>
<path style="fill-rule:nonzero;fill:rgb(90.196078%,90.196078%,90.196078%);fill-opacity:1;stroke-width:14;stroke-linecap:round;stroke-linejoin:miter;stroke:rgb(0%,0%,0%);stroke-opacity:1;stroke-miterlimit:4;" d="M 192.674035 241.059772 C 192.674035 241.059772 242.787686 157.536006 226.083136 124.1265 C 226.083136 124.1265 214.946769 96.285244 192.674035 96.285244 C 170.401301 96.285244 159.264934 124.1265 159.264934 124.1265 C 142.560384 157.536006 192.674035 241.059772 192.674035 241.059772 " transform="matrix(0.181696,0,0,0.180291,0.0543263,0)"/>
<path style="fill-rule:nonzero;fill:rgb(90.196078%,90.196078%,90.196078%);fill-opacity:1;stroke-width:14;stroke-linecap:round;stroke-linejoin:round;stroke:rgb(0%,0%,0%);stroke-opacity:1;stroke-miterlimit:4;" d="M 70.195498 351.991467 C 131.445516 391.012557 242.787686 391.012557 304.037704 351.991467 L 304.037704 273.992619 C 304.037704 273.992619 404.243508 224.008357 370.834407 157.146012 C 326.310438 84.758748 220.514952 118.146588 192.674035 201.69202 C 153.696751 118.168254 47.901265 84.758748 14.513663 157.146012 C -18.895438 224.008357 70.195498 268.511033 70.195498 268.511033 Z M 70.195498 351.991467 " transform="matrix(0.181696,0,0,0.180291,0.0543263,0)"/>
<path style="fill-rule:nonzero;fill:rgb(90.196078%,90.196078%,90.196078%);fill-opacity:1;stroke-width:14;stroke-linecap:round;stroke-linejoin:round;stroke:rgb(0%,0%,0%);stroke-opacity:1;stroke-miterlimit:4;" d="M 70.195498 274.079284 C 131.445516 240.648111 242.787686 240.648111 304.037704 274.079284 " transform="matrix(0.181696,0,0,0.180291,0.0543263,0)"/>
<path style="fill-rule:nonzero;fill:rgb(90.196078%,90.196078%,90.196078%);fill-opacity:1;stroke-width:14;stroke-linecap:round;stroke-linejoin:round;stroke:rgb(0%,0%,0%);stroke-opacity:1;stroke-miterlimit:4;" d="M 70.195498 312.992043 C 131.445516 279.582536 242.787686 279.582536 304.037704 312.992043 " transform="matrix(0.181696,0,0,0.180291,0.0543263,0)"/>
<path style="fill-rule:nonzero;fill:rgb(90.196078%,90.196078%,90.196078%);fill-opacity:1;stroke-width:14;stroke-linecap:round;stroke-linejoin:round;stroke:rgb(0%,0%,0%);stroke-opacity:1;stroke-miterlimit:4;" d="M 70.195498 351.991467 C 131.445516 318.58196 242.787686 318.58196 304.037704 351.991467 " transform="matrix(0.181696,0,0,0.180291,0.0543263,0)"/>
</g>
</svg>
